<?xml version="1.0" standalone="no"?>
<!DOCTYPE svg PUBLIC "-//W3C//DTD SVG 20010904//EN"
 "http://www.w3.org/TR/2001/REC-SVG-20010904/DTD/svg10.dtd">
<svg version="1.0" xmlns="http://www.w3.org/2000/svg"
 width="167.000000pt" height="212.000000pt" viewBox="0 0 167.000000 212.000000"
 preserveAspectRatio="xMidYMid meet">
<metadata>
Created by potrace 1.10, written by Peter Selinger 2001-2011
</metadata>
<g transform="translate(0.000000,212.000000) scale(0.100000,-0.100000)"
fill="#0000FF" stroke="none">
<path d="M760 1859 c0 -11 -18 -82 -41 -157 -23 -75 -42 -142 -43 -149 -1 -7
-5 -16 -9 -19 -4 -4 -7 -15 -7 -25 0 -13 -16 -21 -62 -32 -69 -17 -98 -25
-203 -56 -38 -12 -80 -21 -92 -21 -13 0 -23 -4 -23 -10 0 -5 9 -10 20 -10 11
0 60 -13 108 -29 48 -15 107 -34 132 -41 25 -7 54 -16 65 -20 11 -5 27 -10 36
-13 13 -4 18 -25 22 -104 4 -54 9 -118 12 -143 14 -118 34 -358 55 -645 7 -93
16 -174 21 -179 5 -6 9 11 9 40 0 27 5 81 11 119 5 39 14 115 19 170 6 55 14
134 20 175 11 79 34 277 51 445 6 55 15 105 19 110 5 6 30 16 57 23 26 7 87
24 136 38 48 13 108 27 132 31 25 3 48 9 50 13 5 8 -47 24 -108 35 -20 4 -40
11 -43 16 -3 5 -14 9 -25 9 -10 0 -27 4 -37 9 -24 13 -117 41 -136 41 -9 0
-16 -6 -16 -14 0 -9 7 -12 20 -9 11 3 20 0 20 -6 0 -6 12 -11 27 -11 14 0 23
-3 19 -7 -4 -4 15 -13 41 -19 26 -7 65 -18 85 -26 l37 -14 -87 -23 c-48 -13
-105 -28 -127 -35 -55 -15 -80 -57 -89 -143 -9 -97 -23 -219 -41 -363 -9 -69
-20 -163 -25 -209 -10 -88 -20 -119 -20 -58 0 19 -4 46 -9 59 -5 13 -12 84
-15 158 -4 74 -11 171 -16 215 -5 44 -11 111 -12 148 -1 38 -6 71 -10 73 -4 3
-8 20 -8 39 0 35 -30 75 -57 75 -7 0 -13 4 -13 9 0 5 -9 7 -20 4 -11 -3 -26
-1 -33 4 -11 9 -56 25 -82 28 -5 1 -23 7 -40 14 -29 12 -29 13 -11 27 11 8 28
14 38 14 10 0 18 4 18 9 0 4 11 6 24 4 13 -3 27 0 30 6 4 6 18 11 31 11 37 0
115 37 115 55 0 9 4 14 9 10 5 -3 13 0 17 6 3 6 1 15 -6 19 -11 7 -10 14 5 36
10 16 20 40 22 54 2 14 5 32 7 40 12 74 52 118 51 57 -1 -15 3 -27 7 -27 4 0
8 -9 8 -20 0 -11 4 -28 9 -38 5 -9 18 -46 28 -81 11 -36 25 -67 33 -69 10 -4
11 3 6 24 -8 34 -42 155 -56 200 -6 17 -10 40 -10 52 0 11 -4 24 -10 27 -5 3
-10 23 -10 45 0 24 -5 40 -15 44 -10 4 -15 -1 -15 -15z"/>
<path d="M429 1683 c5 -10 30 -39 55 -65 25 -26 46 -50 46 -54 0 -11 33 -33
51 -34 17 0 49 30 49 47 0 6 -17 20 -37 31 -58 30 -116 63 -138 78 -27 19 -38
18 -26 -3z"/>
<path d="M1049 1655 c-30 -19 -59 -35 -65 -35 -23 0 -74 -32 -74 -46 0 -20 36
-54 58 -54 10 0 26 14 35 30 10 17 41 52 68 79 27 27 46 52 41 55 -5 3 -33
-10 -63 -29z"/>
<path d="M487 1169 c-42 -44 -77 -81 -77 -84 0 -12 23 -3 72 28 29 18 70 41
91 51 32 14 38 22 35 43 -2 15 -12 29 -23 33 -16 6 -35 -7 -98 -71z"/>
<path d="M932 1228 c-28 -28 -13 -52 58 -92 39 -22 70 -43 70 -47 0 -3 11 -9
25 -11 31 -6 28 -2 -54 90 -67 74 -78 81 -99 60z"/>
</g>
</svg>
